# File created by Blade
# Date/Time:  Thu Sep 25 15:41:58 2014
# Frame Rate: 120.000 fps
#------------------------------------------------------
:FULLY-SPECIFIED
:DEGREES
141
root 10.577751 31.471770 2.827264 17.924283 -71.300928 -9.316472
Spine 3.416505 -1.536960 2.904695
Head 5.727300 -26.703837 9.959517
LeftShoulder -6.622338 21.424756 15.290971
LeftArm 41.476928 24.241141 -57.539458
LeftForeArm 6.226810 -0.000000 25.015087
LeftHand -25.864857 -0.000000 2.765910
LeftHandThumb1 -26.253704 0.000000 33.147579
RightShoulder -19.513223 7.695486 -22.154704
RightArm -9.504838 -28.690419 89.213494
RightForeArm -24.187371 -0.000000 30.751260
RightHand -4.762541 -0.000000 1.847387
RightHandThumb1 -24.326973 -0.000000 -32.862282
LeftUpLeg -9.009828 -11.445278 5.325139
LeftLeg 31.719730 -0.000000 -0.000000
LeftFoot -28.786659 -1.323041 -21.584141
LeftToeBase -3.621936 -0.000000 0.000000
RightUpLeg -35.365842 6.320805 -17.125073
RightLeg 16.363116 -0.000000 -0.000000
RightFoot 6.994720 17.795487 -8.960474
RightToeBase -14.681589 -0.000000 0.000000
142
root 10.819457 31.519422 2.863386 19.032533 -72.237004 -10.361598
Spine 3.479679 -1.045213 2.792804
Head 5.749555 -26.271061 9.963735
LeftShoulder -6.622683 21.476716 15.334231
LeftArm 41.303920 24.353307 -57.566211
LeftForeArm 6.161455 -0.000000 24.982367
LeftHand -26.231774 -0.000000 2.902122
LeftHandThumb1 -26.253704 0.000000 33.147579
RightShoulder -19.370653 7.880768 -22.219382
RightArm -9.421277 -28.837225 89.474091
RightForeArm -23.957836 -0.000000 30.467787
RightHand -4.650679 0.000000 1.786663
RightHandThumb1 -24.326973 -0.000000 -32.862282
LeftUpLeg -9.276013 -11.053397 5.143385
LeftLeg 31.558449 -0.000000 -0.000000
LeftFoot -28.819027 -0.667695 -21.652657
LeftToeBase -3.522464 -0.000000 0.000000
RightUpLeg -35.565555 5.912705 -16.177371
RightLeg 16.896997 -0.000000 -0.000000
RightFoot 5.081801 14.213337 -8.518133
RightToeBase -13.494431 -0.000000 0.000000
143
root 11.057069 31.569867 2.896987 20.190638 -73.177607 -11.434179
Spine 3.510672 -0.522682 2.658636
Head 5.780817 -25.855737 9.925883
LeftShoulder -6.572062 21.400231 15.378367
LeftArm 40.916067 24.473894 -57.697516
LeftForeArm 6.116483 -0.000000 24.986171
LeftHand -26.175105 -0.000000 2.937556
LeftHandThumb1 -26.253704 0.000000 33.147579
RightShoulder -19.221326 8.050328 -22.256191
RightArm -9.295104 -28.994722 89.669684
RightForeArm -23.880037 0.000000 30.188194
RightHand -4.603004 -0.000000 1.951651
RightHandThumb1 -24.326973 -0.000000 -32.862282
LeftUpLeg -9.547873 -10.611810 4.960123
LeftLeg 31.358171 -0.000000 -0.000000
LeftFoot -28.815990 -0.016532 -21.663764
LeftToeBase -3.203277 -0.000000 0.000000
RightUpLeg -35.830789 5.501182 -15.237397
RightLeg 17.731094 -0.000000 -0.000000
RightFoot 3.230279 10.025292 -6.810296
RightToeBase -12.849716 -0.000000 0.000000
144
root 11.282080 31.620749 2.935259 21.345266 -74.196100 -12.483500
Spine 3.495080 0.048113 2.442846
Head 5.787296 -25.411181 9.893447
LeftShoulder -6.687765 21.418505 15.332117
LeftArm 40.618975 24.598077 -57.749103
LeftForeArm 6.108946 -0.000000 24.978598
LeftHand -26.134251 -0.000000 3.093621
LeftHandThumb1 -26.253704 0.000000 33.147579
RightShoulder -19.075726 8.273338 -22.290774
RightArm -9.270110 -29.325729 89.903838
RightForeArm -23.766377 -0.000000 29.931666
RightHand -4.523097 -0.000000 1.855330
RightHandThumb1 -24.326973 -0.000000 -32.862282
LeftUpLeg -9.750092 -10.110738 4.699674
LeftLeg 31.043532 -0.000000 -0.000000
LeftFoot -28.768542 0.673820 -21.677897
LeftToeBase -3.060319 -0.000000 0.000000
RightUpLeg -36.125615 5.002432 -14.276542
RightLeg 18.795107 -0.000000 -0.000000
RightFoot 1.512636 5.965478 -4.760095
RightToeBase -11.748404 -0.000000 0.000000
145
root 11.507238 31.672652 2.965182 22.694303 -75.114865 -13.702871
Spine 3.446943 0.591275 2.276060
Head 5.750753 -24.985480 9.883969
LeftShoulder -6.746387 21.428609 15.308713
LeftArm 40.280967 24.667200 -57.875983
LeftForeArm 6.115982 -0.000000 24.944428
LeftHand -26.062607 -0.000000 3.258882
LeftHandThumb1 -26.253704 0.000000 33.147579
RightShoulder -18.970593 8.448911 -22.342809
RightArm -9.200334 -29.740137 90.132113
RightForeArm -23.610422 -0.000000 29.645060
RightHand -4.477586 -0.000000 2.044136
RightHandThumb1 -24.326973 -0.000000 -32.862282
LeftUpLeg -10.028513 -9.608433 4.513760
LeftLeg 30.738707 -0.000000 -0.000000
LeftFoot -28.703997 1.334618 -21.700000
LeftToeBase -2.685385 -0.000000 0.000000
RightUpLeg -36.380023 4.607747 -13.350170
RightLeg 19.987474 -0.000000 -0.000000
RightFoot 0.097030 2.276567 -3.373484
RightToeBase -10.172014 -0.000000 0.000000
146
root 11.733622 31.726563 2.994624 24.100918 -75.998083 -14.953748
Spine 3.351376 1.046236 2.106778
Head 5.783366 -24.484977 9.807548
LeftShoulder -6.851159 21.504028 15.243888
LeftArm 39.869415 24.595052 -58.147761
LeftForeArm 6.185149 -0.000000 25.006718
LeftHand -26.245994 0.000000 3.169508
LeftHandThumb1 -26.253704 0.000000 33.147579
RightShoulder -18.763624 8.641303 -22.387891
RightArm -9.090526 -30.069881 90.327686
RightForeArm -23.731949 -0.000000 29.337456
RightHand -4.440467 -0.000000 2.052832
RightHandThumb1 -24.326973 -0.000000 -32.862282
LeftUpLeg -10.297236 -9.213609 4.317446
LeftLeg 30.365803 -0.000000 -0.000000
LeftFoot -28.648072 1.978656 -21.663902
LeftToeBase -2.177233 -0.000000 0.000000
RightUpLeg -36.627471 4.091623 -12.369070
RightLeg 21.371888 -0.000000 -0.000000
RightFoot -1.010866 -0.551647 -2.767622
RightToeBase -8.159769 -0.000000 0.000000
147
root 11.953590 31.780916 3.022495 25.517216 -76.841530 -16.196873
Spine 3.197818 1.503479 1.911898
Head 5.870955 -24.008948 9.697031
LeftShoulder -6.887059 21.671287 15.200014
LeftArm 39.503762 24.537246 -58.354118
LeftForeArm 6.155452 -0.000000 25.042126
LeftHand -26.249031 -0.000000 3.444371
LeftHandThumb1 -26.253704 0.000000 33.147579
RightShoulder -18.600246 8.725019 -22.417335
RightArm -8.867304 -30.589763 90.496578
RightForeArm -23.523872 -0.000000 28.953136
RightHand -4.340466 -0.000000 2.142405
RightHandThumb1 -24.326973 -0.000000 -32.862282
LeftUpLeg -10.546253 -8.850813 4.107466
LeftLeg 29.922894 -0.000000 -0.000000
LeftFoot -28.557788 2.716285 -21.624399
LeftToeBase -1.819108 -0.000000 0.000000
RightUpLeg -36.882175 3.369072 -11.337946
RightLeg 22.991300 -0.000000 -0.000000
RightFoot -1.990917 -2.992722 -2.614063
RightToeBase -5.862242 -0.000000 0.000000
148
root 12.169536 31.834947 3.053231 27.160422 -77.695174 -17.553550
Spine 2.911522 1.924181 1.706261
Head 5.885821 -23.476423 9.607120
LeftShoulder -7.096665 21.834077 15.055796
LeftArm 39.065722 24.449213 -58.623700
LeftForeArm 6.220248 -0.000000 25.136864
LeftHand -26.083979 0.000000 3.531396
LeftHandThumb1 -26.253704 0.000000 33.147579
RightShoulder -18.493816 8.890976 -22.459352
RightArm -8.765785 -31.222786 90.668320
RightForeArm -23.432007 -0.000000 28.685748
RightHand -4.344257 -0.000000 2.086925
RightHandThumb1 -24.326973 -0.000000 -32.862282
LeftUpLeg -10.896054 -8.522199 3.893159
LeftLeg 29.462181 -0.000000 -0.000000
LeftFoot -28.455908 3.482311 -21.649978
LeftToeBase -1.593330 -0.000000 0.000000
RightUpLeg -37.187184 2.769995 -10.434132
RightLeg 24.680605 -0.000000 -0.000000
RightFoot -3.034644 -5.111063 -2.453878
RightToeBase -3.955944 -0.000000 0.000000
149
root 12.387906 31.889167 3.084836 29.128815 -78.573073 -19.265039
Spine 2.653739 2.416042 1.557875
Head 5.899941 -22.981554 9.425439
LeftShoulder -7.226912 22.028108 14.917911
LeftArm 38.667080 24.384202 -58.886476
LeftForeArm 6.130563 -0.000000 25.209208
LeftHand -26.607459 -0.000000 3.863651
LeftHandThumb1 -26.253704 0.000000 33.147579
RightShoulder -18.313438 9.050473 -22.543920
RightArm -8.580266 -31.600951 90.808959
RightForeArm -23.485839 -0.000000 28.303130
RightHand -4.311502 -0.000000 2.135306
RightHandThumb1 -24.326973 -0.000000 -32.862282
LeftUpLeg -11.185991 -8.195080 3.681740
LeftLeg 28.938067 -0.000000 -0.000000
LeftFoot -28.383746 4.369263 -21.606125
LeftToeBase -1.342095 -0.000000 0.000000
RightUpLeg -37.507572 2.248784 -9.557053
RightLeg 26.555463 -0.000000 -0.000000
RightFoot -3.825051 -6.798583 -2.573826
RightToeBase -3.699470 -0.000000 0.000000
150
root 12.600665 31.940394 3.118164 31.098116 -79.389512 -20.940552
Spine 2.317240 2.804531 1.386318
Head 5.990772 -22.410771 9.213749
LeftShoulder -7.361566 22.157290 14.779589
LeftArm 38.033406 24.274300 -59.285491
LeftForeArm 6.031747 -0.000000 25.372049
LeftHand -26.551062 0.000000 3.989935
LeftHandThumb1 -26.253704 0.000000 33.147579
RightShoulder -18.102595 9.204645 -22.665534
RightArm -8.450309 -32.156064 91.002899
RightForeArm -23.456022 -0.000000 28.003067
RightHand -4.348200 0.000000 2.434635
RightHandThumb1 -24.326973 -0.000000 -32.862282
LeftUpLeg -11.502965 -8.011299 3.453153
LeftLeg 28.391139 -0.000000 -0.000000
LeftFoot -28.328517 5.270516 -21.601743
LeftToeBase -1.029105 -0.000000 0.000000
RightUpLeg -37.798802 1.621438 -8.689035
RightLeg 28.421645 -0.000000 -0.000000
RightFoot -4.512449 -8.004907 -2.843666
RightToeBase -3.942903 -0.000000 0.000000
